<svg xmlns="http://www.w3.org/2000/svg" xml:space="preserve" style="fill-rule:evenodd;clip-rule:evenodd;stroke-linejoin:round;stroke-miterlimit:2" viewBox="0 0 512 427"><path d="m176.895 12.188-22.162 22.54 92.961 92.962c14.421 15.65 36.375 15.925 50.414 3.769 16.59-14.364 17.921-38.992 2.796-54.113l-65.155-65.158c-16.254-16.25-42.604-16.25-58.854 0" style="fill:#6f86d6;fill-rule:nonzero" transform="scale(1.64393)"/><path d="m249.314 128.934-94.581-94.583-39.361 39.362c-16.254 16.25-16.254 42.6 0 58.854l65.154 65.155c14.246 14.245 14.246 37.345 0 51.591l25.796-25.796 68.783-68.787 25.071-25.568c-14.246 14.246-36.617 13.851-50.862-.228" style="fill:#72afd3;fill-rule:nonzero" transform="translate(0 .622)scale(1.64393)"/><path d="M48.785 116.279c-6.004 6.004-15.733 6.004-21.738 0-6.004-6-6.004-15.733 0-21.737 6.005-6.005 15.738-6.005 21.738 0 6.004 6.004 6.004 15.737 0 21.737M73.714 12.187 12.189 73.712c-16.254 16.255-16.25 42.6 0 58.85l115.275 115.28c13.496 13.491 35.63 16.015 50.528 4.093a34.7 34.7 0 0 0 4.436-4.243c12.33-14.092 11.63-36.438-2.064-49.738l-64.94-64.977c-16.614-16.765-16.058-43.143.114-58.981l39.195-39.268-22.169-22.541c-16.25-16.25-42.6-16.25-58.85 0" style="fill:#37ecba;fill-rule:nonzero" transform="scale(1.64393)"/></svg>