<?xml version="1.0" encoding="UTF-8" standalone="no"?>
<!DOCTYPE svg PUBLIC "-//W3C//DTD SVG 1.1//EN" "http://www.w3.org/Graphics/SVG/1.1/DTD/svg11.dtd">
<svg width="100%" height="100%" viewBox="0 0 312 260" version="1.1" xmlns="http://www.w3.org/2000/svg" xmlns:xlink="http://www.w3.org/1999/xlink" xml:space="preserve" xmlns:serif="http://www.serif.com/" style="fill-rule:evenodd;clip-rule:evenodd;stroke-linejoin:round;stroke-miterlimit:2;">
    <g transform="matrix(1,0,0,1,-0.411382,-23.2053)">
        <g transform="matrix(1,0,0,1,0.411382,26.2058)">
            <g transform="matrix(1,0,0,1,0,-3)">
                <path d="M176.895,12.188L154.733,34.728L247.694,127.69C262.115,143.34 284.069,143.615 298.108,131.459C314.698,117.095 316.029,92.467 300.904,77.346L235.749,12.188C219.495,-4.062 193.145,-4.062 176.895,12.188" style="fill:rgb(111,134,214);fill-rule:nonzero;"/>
            </g>
        </g>
        <g transform="matrix(1,0,0,1,0.411382,26.2058)">
            <g transform="matrix(1,0,0,1,0,-2.62251)">
                <path d="M249.314,128.934L154.733,34.351L115.372,73.713C99.118,89.963 99.118,116.313 115.372,132.567L180.526,197.722C194.772,211.967 194.772,235.067 180.526,249.313L206.322,223.517L275.105,154.73L300.176,129.162C285.93,143.408 263.559,143.013 249.314,128.934" style="fill:rgb(114,175,211);fill-rule:nonzero;"/>
            </g>
        </g>
        <g transform="matrix(1,0,0,1,0.411382,26.2058)">
            <g transform="matrix(1,0,0,1,0,-3)">
                <path d="M48.785,116.279C42.781,122.283 33.052,122.283 27.047,116.279C21.043,110.279 21.043,100.546 27.047,94.542C33.052,88.537 42.785,88.537 48.785,94.542C54.789,100.546 54.789,110.279 48.785,116.279M73.714,12.187L12.189,73.712C-4.065,89.967 -4.061,116.312 12.189,132.562L127.464,247.842C140.96,261.333 163.094,263.857 177.992,251.935C179.622,250.631 181.1,249.209 182.428,247.692C194.758,233.6 194.058,211.254 180.364,197.954L115.424,132.977C98.81,116.212 99.366,89.834 115.538,73.996L154.733,34.728L132.564,12.187C116.314,-4.063 89.964,-4.063 73.714,12.187" style="fill:rgb(55,236,186);fill-rule:nonzero;"/>
            </g>
        </g>
    </g>
</svg>
